<svg xmlns="http://www.w3.org/2000/svg" version="1.1" xmlns:xlink="http://www.w3.org/1999/xlink" xmlns:svgjs="http://svgjs.dev/svgjs" width="1440" height="560" preserveAspectRatio="none" viewBox="0 0 1440 560"><g mask="url(&quot;#SvgjsMask1065&quot;)" fill="none"><rect width="1440" height="560" x="0" y="0" fill="rgba(33, 37, 41, 1)"></rect><path d="M 0,47 C 57.6,83.2 172.8,230.2 288,228 C 403.2,225.8 460.8,39.4 576,36 C 691.2,32.6 748.8,201.2 864,211 C 979.2,220.8 1036.8,82.4 1152,85 C 1267.2,87.6 1382.4,196.2 1440,224L1440 560L0 560z" fill="rgba(24, 74, 126, 0.17)"></path><path d="M 0,458 C 18,437.2 54,360 90,354 C 126,348 144,428.8 180,428 C 216,427.2 234,324.4 270,350 C 306,375.6 324,564.6 360,556 C 396,547.4 414,306.6 450,307 C 486,307.4 504,550.4 540,558 C 576,565.6 594,359.6 630,345 C 666,330.4 684,477.6 720,485 C 756,492.4 774,379.8 810,382 C 846,384.2 864,504 900,496 C 936,488 954,341.6 990,342 C 1026,342.4 1044,483.2 1080,498 C 1116,512.8 1134,413.8 1170,416 C 1206,418.2 1224,524 1260,509 C 1296,494 1314,342.8 1350,341 C 1386,339.2 1422,468.2 1440,500L1440 560L0 560z" fill="rgba(24, 74, 126, 0.13)"></path></g><defs><mask id="SvgjsMask1065"><rect width="1440" height="560" fill="#ffffff"></rect></mask></defs></svg>